<svg width="48" height="48" viewBox="0 0 48 48" fill="none" xmlns="http://www.w3.org/2000/svg">
<path d="M39 28.5C37.95 28.5 36.9 28.95 36.15 29.55L29.7 25.65C29.85 25.05 30 24.6 30 24C30 23.4 29.85 22.8 29.7 22.35L36.15 18.45C36.9 19.05 37.95 19.5 39 19.5C41.55 19.5 43.5 17.55 43.5 15C43.5 12.45 41.55 10.5 39 10.5C36.45 10.5 34.5 12.45 34.5 15C34.5 15.3 34.5 15.6 34.65 15.9L28.2 19.8C27.15 18.6 25.65 18 24 18C23.1 18 22.35 18.15 21.6 18.6L15.9 11.4C16.2 10.65 16.5 9.9 16.5 9C16.5 6.45 14.55 4.5 12 4.5C9.45 4.5 7.5 6.45 7.5 9C7.5 11.55 9.45 13.5 12 13.5C12.45 13.5 13.05 13.35 13.5 13.2L19.2 20.4C18.75 21 18.45 21.75 18.15 22.5H11.7C11.1 20.7 9.45 19.5 7.5 19.5C4.95 19.5 3 21.45 3 24C3 26.55 4.95 28.5 7.5 28.5C9.45 28.5 11.1 27.3 11.7 25.5H18.15C18.3 26.25 18.75 27 19.2 27.6L13.5 34.8C13.05 34.65 12.45 34.5 12 34.5C9.45 34.5 7.5 36.45 7.5 39C7.5 41.55 9.45 43.5 12 43.5C14.55 43.5 16.5 41.55 16.5 39C16.5 38.1 16.2 37.35 15.75 36.6L21.45 29.4C22.2 29.7 23.1 30 23.85 30C25.5 30 27 29.4 28.05 28.2L34.5 32.1C34.5 32.4 34.35 32.7 34.35 33C34.35 35.55 36.3 37.5 38.85 37.5C41.4 37.5 43.35 35.55 43.35 33C43.35 30.45 41.55 28.5 39 28.5ZM39 13.5C39.9 13.5 40.5 14.1 40.5 15C40.5 15.9 39.9 16.5 39 16.5C38.1 16.5 37.5 15.9 37.5 15C37.5 14.1 38.1 13.5 39 13.5ZM10.5 9C10.5 8.1 11.1 7.5 12 7.5C12.9 7.5 13.5 8.1 13.5 9C13.5 9.9 12.9 10.5 12 10.5C11.1 10.5 10.5 9.9 10.5 9ZM7.5 25.5C6.6 25.5 6 24.9 6 24C6 23.1 6.6 22.5 7.5 22.5C8.4 22.5 9 23.1 9 24C9 24.9 8.4 25.5 7.5 25.5ZM12 40.5C11.1 40.5 10.5 39.9 10.5 39C10.5 38.1 11.1 37.5 12 37.5C12.9 37.5 13.5 38.1 13.5 39C13.5 39.9 12.9 40.5 12 40.5ZM24 27C22.35 27 21 25.65 21 24C21 22.35 22.35 21 24 21C25.65 21 27 22.35 27 24C27 25.65 25.65 27 24 27ZM39 34.5C38.1 34.5 37.5 33.9 37.5 33C37.5 32.1 38.1 31.5 39 31.5C39.9 31.5 40.5 32.1 40.5 33C40.5 33.9 39.9 34.5 39 34.5Z" fill="#EC5AF3"/>
<circle cx="24" cy="24" r="4.5" stroke="white" stroke-width="3"/>
</svg>
