<svg width="48" height="48" viewBox="0 0 48 48" fill="none" xmlns="http://www.w3.org/2000/svg">
<path d="M38.7327 15.1861C38.0783 11.758 36.249 8.66552 33.5598 6.44114C30.8706 4.21675 27.4899 2.99976 24 2.99976C20.5101 2.99976 17.1294 4.21675 14.4403 6.44114C11.7511 8.66552 9.92179 11.758 9.26741 15.1861C6.5003 15.6803 4.01866 17.193 2.31147 19.4261C0.604289 21.6592 -0.204618 24.4507 0.0441442 27.2506C0.292907 30.0505 1.5813 32.6556 3.65544 34.5528C5.72959 36.4499 8.43906 37.5014 11.25 37.5001H12V34.5001H11.25C9.11154 34.5014 7.05625 33.6718 5.51797 32.1864C3.97969 30.701 3.07877 28.6759 3.00541 26.5387C2.93205 24.4016 3.69197 22.3195 5.12477 20.7321C6.55757 19.1447 8.55113 18.1761 10.6846 18.0308L11.9392 17.9452L12.0742 16.6949C12.3951 13.7561 13.7898 11.0392 15.9907 9.06547C18.1917 7.09175 21.0439 6.00019 24.0002 6.00019C26.9565 6.00019 29.8087 7.09175 32.0096 9.06547C34.2106 11.0392 35.6053 13.7561 35.9262 16.6949L36.0612 17.9452L37.3158 18.0308C39.4493 18.1761 41.4429 19.1447 42.8757 20.7322C44.3085 22.3197 45.0684 24.4018 44.9949 26.539C44.9215 28.6762 44.0205 30.7012 42.4822 32.1866C40.9438 33.672 38.8884 34.5015 36.75 34.5001H36V37.5001H36.75C39.5609 37.5014 42.2704 36.45 44.3445 34.5529C46.4187 32.6557 47.7071 30.0506 47.9559 27.2507C48.2047 24.4508 47.3958 21.6593 45.6886 19.4262C43.9814 17.1931 41.4998 15.6803 38.7327 15.1861Z" fill="white"/>
<path d="M34.5 33V30H31.3483C31.1549 29.0611 30.7822 28.1683 30.2505 27.3707L32.4855 25.1356L30.3645 23.0146L28.1295 25.2496C27.3318 24.7179 26.439 24.3451 25.5 24.1517V21H22.5V24.1517C21.5611 24.3451 20.6683 24.7178 19.8706 25.2495L17.6357 23.0145L15.5146 25.1355L17.7497 27.3705C17.2179 28.1682 16.8451 29.061 16.6516 30H13.5V33H16.6516C16.8451 33.9389 17.2178 34.8317 17.7495 35.6293L15.5145 37.8644L17.6355 39.9854L19.8705 37.7504C20.6682 38.2821 21.561 38.6549 22.5 38.8483V42H25.5V38.8483C26.4389 38.6549 27.3317 38.2822 28.1293 37.7505L30.3644 39.9855L32.4854 37.8645L30.2504 35.6295C30.7821 34.8318 31.1549 33.939 31.3483 33H34.5ZM24 36C23.11 36 22.24 35.7361 21.4999 35.2416C20.7599 34.7471 20.1831 34.0443 19.8425 33.2221C19.5019 32.3998 19.4128 31.495 19.5865 30.6221C19.7601 29.7492 20.1887 28.9474 20.818 28.318C21.4474 27.6887 22.2492 27.2601 23.1221 27.0865C23.995 26.9128 24.8998 27.0019 25.7221 27.3425C26.5443 27.6831 27.2471 28.2599 27.7416 28.9999C28.2361 29.74 28.5 30.61 28.5 31.5C28.4987 32.6931 28.0242 33.8369 27.1805 34.6805C26.3369 35.5242 25.1931 35.9987 24 36Z" fill="#EC5AF3"/>
</svg>
