<svg width="48" height="48" viewBox="0 0 48 48" fill="none" xmlns="http://www.w3.org/2000/svg">
<path d="M40.5 43.5H19.5C17.85 43.5 16.5 42.15 16.5 40.5V34.5H19.5V40.5H40.5V19.5H34.5V16.5H40.5C42.15 16.5 43.5 17.85 43.5 19.5V40.5C43.5 42.15 42.15 43.5 40.5 43.5Z" fill="#EC5AF3"/>
<path d="M30 25.5C29.25 25.5 28.65 25.65 28.05 25.95L22.05 19.95C22.35 19.35 22.5 18.75 22.5 18C22.5 15.45 20.55 13.5 18 13.5C15.45 13.5 13.5 15.45 13.5 18C13.5 20.55 15.45 22.5 18 22.5C18.75 22.5 19.35 22.35 19.95 22.05L25.95 28.05C25.65 28.65 25.5 29.25 25.5 30C25.5 32.55 27.45 34.5 30 34.5C32.55 34.5 34.5 32.55 34.5 30C34.5 27.45 32.55 25.5 30 25.5ZM16.5 18C16.5 17.1 17.1 16.5 18 16.5C18.9 16.5 19.5 17.1 19.5 18C19.5 18.9 18.9 19.5 18 19.5C17.1 19.5 16.5 18.9 16.5 18ZM30 31.5C29.1 31.5 28.5 30.9 28.5 30C28.5 29.1 29.1 28.5 30 28.5C30.9 28.5 31.5 29.1 31.5 30C31.5 30.9 30.9 31.5 30 31.5Z" fill="#EC5AF3"/>
<path d="M7.5 4.5H28.5C30.15 4.5 31.5 5.85 31.5 7.5V13.5H28.5V7.5H7.5V28.5H13.5V31.5H7.5C5.85 31.5 4.5 30.15 4.5 28.5V7.5C4.5 5.85 5.85 4.5 7.5 4.5Z" fill="white"/>
</svg>
