<svg width="48" height="48" viewBox="0 0 48 48" fill="none" xmlns="http://www.w3.org/2000/svg">
<path d="M23.25 19.5C24.4926 19.5 25.5 18.4926 25.5 17.25C25.5 16.0074 24.4926 15 23.25 15C22.0074 15 21 16.0074 21 17.25C21 18.4926 22.0074 19.5 23.25 19.5Z" fill="#EC5AF3"/>
<path d="M30.75 25.5C31.9926 25.5 33 24.4926 33 23.25C33 22.0074 31.9926 21 30.75 21C29.5074 21 28.5 22.0074 28.5 23.25C28.5 24.4926 29.5074 25.5 30.75 25.5Z" fill="#EC5AF3"/>
<path d="M24 25.5C24.8284 25.5 25.5 24.8284 25.5 24C25.5 23.1716 24.8284 22.5 24 22.5C23.1716 22.5 22.5 23.1716 22.5 24C22.5 24.8284 23.1716 25.5 24 25.5Z" fill="#EC5AF3"/>
<path d="M24.75 33C25.9926 33 27 31.9926 27 30.75C27 29.5074 25.9926 28.5 24.75 28.5C23.5074 28.5 22.5 29.5074 22.5 30.75C22.5 31.9926 23.5074 33 24.75 33Z" fill="#EC5AF3"/>
<path d="M17.25 27C18.4926 27 19.5 25.9926 19.5 24.75C19.5 23.5074 18.4926 22.5 17.25 22.5C16.0074 22.5 15 23.5074 15 24.75C15 25.9926 16.0074 27 17.25 27Z" fill="#EC5AF3"/>
<path d="M42 19.5V22.5H38.9238C38.6286 19.5699 37.4729 16.7926 35.6023 14.5181L37.7574 12.3633L39.8788 14.4851L42 12.364L35.6367 6L33.5157 8.12115L35.6367 10.2422L33.4812 12.3969C31.2068 10.5266 28.4298 9.37124 25.5 9.0762V6H28.5V3H19.5V6H22.5V9.0762C19.5702 9.37124 16.7932 10.5266 14.5188 12.3969L12.3633 10.2422L14.4843 8.12115L12.3633 6L6 12.364L8.12115 14.4851L10.2426 12.3633L12.3976 14.5181C10.5271 16.7926 9.37141 19.5699 9.0762 22.5H6V19.5H3V28.5H6V25.5H9.0762C9.37141 28.4301 10.5271 31.2074 12.3976 33.482L10.2426 35.6367L8.12115 33.5149L6 35.6359L12.3633 42L14.4843 39.8788L12.3633 37.7579L14.5188 35.6031C16.7932 37.4734 19.5702 38.6288 22.5 38.9238V42H19.5V45H28.5V42H25.5V38.9238C28.4298 38.6288 31.2068 37.4734 33.4812 35.6031L35.6367 37.7579L33.5157 39.8788L35.6367 42L42 35.6359L39.8788 33.5149L37.7574 35.6367L35.6023 33.482C37.4729 31.2074 38.6286 28.4301 38.9238 25.5H42V28.5H45V19.5H42ZM24 36C21.6266 36 19.3065 35.2962 17.3332 33.9776C15.3598 32.6591 13.8217 30.7849 12.9134 28.5922C12.0052 26.3995 11.7676 23.9867 12.2306 21.6589C12.6936 19.3311 13.8365 17.1929 15.5147 15.5147C17.1929 13.8365 19.3311 12.6936 21.6589 12.2306C23.9867 11.7676 26.3995 12.0052 28.5922 12.9134C30.7849 13.8217 32.6591 15.3598 33.9776 17.3332C35.2962 19.3065 36 21.6266 36 24C35.9963 27.1815 34.7309 30.2316 32.4812 32.4812C30.2316 34.7309 27.1815 35.9963 24 36Z" fill="white"/>
</svg>
