<svg width="56" height="56" viewBox="0 0 56 56" fill="none" xmlns="http://www.w3.org/2000/svg">
<path d="M39.6667 46.6667H39.2C35.2796 46.6667 33.3194 46.6667 31.8221 45.9038C30.5049 45.2327 29.4341 44.1618 28.763 42.8447C28 41.3473 28 39.3871 28 35.4667V20.5334C28 16.613 28 14.6529 28.763 13.1555C29.4341 11.8383 30.5049 10.7675 31.8221 10.0964C33.3194 9.33341 35.2796 9.33341 39.2 9.33341H39.6667M39.6667 46.6667C39.6667 49.2441 41.756 51.3334 44.3333 51.3334C46.9107 51.3334 49 49.2441 49 46.6667C49 44.0894 46.9107 42.0001 44.3333 42.0001C41.756 42.0001 39.6667 44.0894 39.6667 46.6667ZM39.6667 9.33341C39.6667 11.9107 41.756 14.0001 44.3333 14.0001C46.9107 14.0001 49 11.9107 49 9.33341C49 6.75609 46.9107 4.66675 44.3333 4.66675C41.756 4.66675 39.6667 6.75609 39.6667 9.33341ZM16.3333 28.0001L39.6667 28.0001M16.3333 28.0001C16.3333 30.5774 14.244 32.6667 11.6667 32.6667C9.08934 32.6667 7 30.5774 7 28.0001C7 25.4228 9.08934 23.3334 11.6667 23.3334C14.244 23.3334 16.3333 25.4228 16.3333 28.0001ZM39.6667 28.0001C39.6667 30.5774 41.756 32.6667 44.3333 32.6667C46.9107 32.6667 49 30.5774 49 28.0001C49 25.4228 46.9107 23.3334 44.3333 23.3334C41.756 23.3334 39.6667 25.4227 39.6667 28.0001Z" stroke="#EDEAE1" stroke-width="4" stroke-linecap="round" stroke-linejoin="round"/>
<path d="M44.3333 32.6667C46.9106 32.6667 49 30.5774 49 28.0001C49 25.4228 46.9106 23.3334 44.3333 23.3334C41.756 23.3334 39.6666 25.4227 39.6666 28.0001C39.6666 30.5774 41.756 32.6667 44.3333 32.6667Z" stroke="#8777E0" stroke-width="4" stroke-linecap="round" stroke-linejoin="round"/>
<path d="M44.3333 14.0001C46.9106 14.0001 49 11.9107 49 9.33341C49 6.75609 46.9106 4.66675 44.3333 4.66675C41.756 4.66675 39.6666 6.75609 39.6666 9.33341C39.6666 11.9107 41.756 14.0001 44.3333 14.0001Z" stroke="#8777E0" stroke-width="4" stroke-linecap="round" stroke-linejoin="round"/>
<path d="M44.3333 51.3334C46.9106 51.3334 49 49.2441 49 46.6667C49 44.0894 46.9106 42.0001 44.3333 42.0001C41.756 42.0001 39.6666 44.0894 39.6666 46.6667C39.6666 49.2441 41.756 51.3334 44.3333 51.3334Z" stroke="#8777E0" stroke-width="4" stroke-linecap="round" stroke-linejoin="round"/>
</svg>
