<svg width="48" height="48" viewBox="0 0 48 48" fill="none" xmlns="http://www.w3.org/2000/svg">
<path d="M30 12V15H39.8788L27 27.8788L20.5605 21.4395C20.4213 21.3002 20.256 21.1896 20.074 21.1142C19.892 21.0388 19.697 20.9999 19.5 20.9999C19.303 20.9999 19.108 21.0388 18.926 21.1142C18.744 21.1896 18.5787 21.3002 18.4395 21.4395L3 36.8788L5.12115 39L19.5 24.6212L25.9395 31.0605C26.0787 31.1998 26.244 31.3104 26.426 31.3858C26.608 31.4612 26.803 31.5001 27 31.5001C27.197 31.5001 27.392 31.4612 27.574 31.3858C27.756 31.3104 27.9213 31.1998 28.0605 31.0605L42 17.1211V27H45V12H30Z" fill="#EC5AF3"/>
</svg>
