<svg width="56" height="56" viewBox="0 0 56 56" fill="none" xmlns="http://www.w3.org/2000/svg">
<path d="M23.3333 31.5H28M32.6667 31.5H28M28 31.5V43.1667M36.1667 39.3726C39.6995 36.8311 42 32.6842 42 28C42 20.268 35.732 14 28 14C20.268 14 14 20.268 14 28C14 32.6842 16.3005 36.8311 19.8333 39.3726V43.8667C19.8333 46.4802 19.8333 47.787 20.342 48.7853C20.7894 49.6634 21.5033 50.3773 22.3814 50.8247C23.3796 51.3333 24.6864 51.3333 27.3 51.3333H28.7C31.3136 51.3333 32.6204 51.3333 33.6186 50.8247C34.4967 50.3773 35.2106 49.6634 35.658 48.7853C36.1667 47.787 36.1667 46.4802 36.1667 43.8667V39.3726Z" stroke="#EDEAE1" stroke-width="4" stroke-linecap="round" stroke-linejoin="round"/>
<path d="M28.0001 4.66675V7.00008M7.00008 28.0001H4.66675M12.8334 12.8334L11.4332 11.4332M43.1667 12.8334L44.5673 11.4332M51.3334 28.0001H49.0001" stroke="#8777E0" stroke-width="4" stroke-linecap="round" stroke-linejoin="round"/>
<path d="M23.3333 31.5H27.9999M32.6666 31.5H27.9999M27.9999 31.5V43.1667" stroke="#8777E0" stroke-width="4" stroke-linecap="round" stroke-linejoin="round"/>
</svg>
