<svg width="48" height="48" viewBox="0 0 48 48" fill="none" xmlns="http://www.w3.org/2000/svg">
<path d="M40.5 36C39.8315 36.0034 39.1725 36.1576 38.5719 36.4512L32.1212 30H27V33H30.8788L36.4508 38.5722C36.1576 39.1728 36.0036 39.8317 36 40.5C36 41.39 36.2639 42.26 36.7584 43.0001C37.2529 43.7401 37.9557 44.3169 38.7779 44.6575C39.6002 44.9981 40.505 45.0872 41.3779 44.9135C42.2508 44.7399 43.0526 44.3113 43.682 43.682C44.3113 43.0526 44.7399 42.2508 44.9135 41.3779C45.0872 40.505 44.9981 39.6002 44.6575 38.7779C44.3169 37.9557 43.7401 37.2529 43.0001 36.7584C42.26 36.2639 41.39 36 40.5 36ZM40.5 42C40.2033 42 39.9133 41.912 39.6666 41.7472C39.42 41.5824 39.2277 41.3481 39.1142 41.074C39.0006 40.7999 38.9709 40.4983 39.0288 40.2074C39.0867 39.9164 39.2296 39.6491 39.4393 39.4393C39.6491 39.2296 39.9164 39.0867 40.2074 39.0288C40.4983 38.9709 40.7999 39.0006 41.074 39.1142C41.3481 39.2277 41.5824 39.42 41.7472 39.6666C41.912 39.9133 42 40.2033 42 40.5C41.9996 40.8977 41.8415 41.279 41.5603 41.5603C41.279 41.8415 40.8977 41.9996 40.5 42ZM40.5 19.5C39.5724 19.5028 38.6684 19.7927 37.9122 20.3298C37.156 20.867 36.5846 21.6251 36.2764 22.5H27V25.5H36.2764C36.5529 26.2756 37.0371 26.9603 37.6764 27.4793C38.3156 27.9983 39.0851 28.3317 39.901 28.4429C40.7168 28.5541 41.5476 28.439 42.3024 28.1101C43.0572 27.7811 43.7071 27.251 44.1811 26.5777C44.655 25.9044 44.9348 25.1138 44.9898 24.2923C45.0449 23.4707 44.873 22.6498 44.4931 21.9193C44.1132 21.1888 43.5398 20.5768 42.8356 20.1501C42.1313 19.7235 41.3234 19.4986 40.5 19.5ZM40.5 25.5C40.2033 25.5 39.9133 25.412 39.6666 25.2472C39.42 25.0824 39.2277 24.8481 39.1142 24.574C39.0006 24.2999 38.9709 23.9983 39.0288 23.7074C39.0867 23.4164 39.2296 23.1491 39.4393 22.9393C39.6491 22.7296 39.9164 22.5867 40.2074 22.5288C40.4983 22.4709 40.7999 22.5006 41.074 22.6142C41.3481 22.7277 41.5824 22.92 41.7472 23.1666C41.912 23.4133 42 23.7033 42 24C41.9996 24.3977 41.8415 24.779 41.5603 25.0603C41.279 25.3415 40.8977 25.4996 40.5 25.5ZM40.5 3C39.3069 3.00131 38.1631 3.47584 37.3195 4.31947C36.4758 5.1631 36.0013 6.30693 36 7.5C36.0051 8.2186 36.1843 8.92525 36.5222 9.5595L30.8935 15H27V18H32.1065L38.7048 11.6214C39.3178 11.8886 39.9826 12.0158 40.6509 11.9936C41.3192 11.9715 41.9742 11.8007 42.5682 11.4936C43.1621 11.1864 43.6801 10.7507 44.0845 10.2182C44.4889 9.68563 44.7694 9.06963 44.9057 8.41499C45.042 7.76036 45.0307 7.08357 44.8725 6.43388C44.7143 5.78419 44.4132 5.17795 43.9912 4.65926C43.5692 4.14058 43.0369 3.72251 42.4329 3.43548C41.829 3.14845 41.1687 2.99968 40.5 3ZM40.5 9C40.2033 9 39.9133 8.91203 39.6666 8.7472C39.42 8.58238 39.2277 8.34811 39.1142 8.07403C39.0006 7.79994 38.9709 7.49834 39.0288 7.20737C39.0867 6.91639 39.2296 6.64912 39.4393 6.43934C39.6491 6.22956 39.9164 6.0867 40.2074 6.02882C40.4983 5.97094 40.7999 6.00065 41.074 6.11418C41.3481 6.22771 41.5824 6.41997 41.7472 6.66665C41.912 6.91332 42 7.20333 42 7.5C41.9996 7.89772 41.8415 8.27904 41.5603 8.56027C41.279 8.84149 40.8977 8.99964 40.5 9Z" fill="#EC5AF3"/>
<path d="M27 9H30V6H27C26.1451 6.00287 25.3009 6.18951 24.5245 6.54725C23.7481 6.905 23.0576 7.42549 22.5 8.07345C21.9424 7.42549 21.2519 6.905 20.4755 6.54725C19.6991 6.18951 18.8549 6.00287 18 6H16.5C12.9208 6.00397 9.48932 7.42756 6.95844 9.95844C4.42756 12.4893 3.00397 15.9208 3 19.5V28.5C3.00397 32.0792 4.42756 35.5107 6.95844 38.0416C9.48932 40.5724 12.9208 41.996 16.5 42H18C18.8549 41.9971 19.6991 41.8105 20.4755 41.4528C21.2519 41.095 21.9424 40.5745 22.5 39.9266C23.0576 40.5745 23.7481 41.095 24.5245 41.4528C25.3009 41.8105 26.1451 41.9971 27 42H30V39H27C26.2046 38.9991 25.4421 38.6827 24.8797 38.1203C24.3173 37.5579 24.0009 36.7954 24 36V12C24.0009 11.2046 24.3173 10.4421 24.8797 9.87969C25.4421 9.31728 26.2046 9.00091 27 9ZM18 39H16.5C13.9776 38.9956 11.541 38.0839 9.63528 36.4315C7.72951 34.7791 6.48178 32.4963 6.12 30H9V27H6V21H10.5C11.6931 20.9987 12.8369 20.5242 13.6805 19.6805C14.5242 18.8369 14.9987 17.6931 15 16.5V13.5H12V16.5C11.9996 16.8977 11.8415 17.279 11.5603 17.5603C11.279 17.8415 10.8977 17.9996 10.5 18H6.12C6.48178 15.5037 7.72951 13.2209 9.63528 11.5685C11.541 9.91609 13.9776 9.00442 16.5 9H18C18.7954 9.00091 19.5579 9.31728 20.1203 9.87969C20.6827 10.4421 20.9991 11.2046 21 12V18H18V21H21V27H18C16.8069 27.0013 15.6631 27.4758 14.8195 28.3195C13.9758 29.1631 13.5013 30.3069 13.5 31.5V34.5H16.5V31.5C16.5004 31.1023 16.6585 30.721 16.9397 30.4397C17.221 30.1585 17.6023 30.0004 18 30H21V36C20.9991 36.7954 20.6827 37.5579 20.1203 38.1203C19.5579 38.6827 18.7954 38.9991 18 39Z" fill="white"/>
</svg>
