<svg width="56" height="56" viewBox="0 0 56 56" fill="none" xmlns="http://www.w3.org/2000/svg">
<path d="M11.5009 44.4992C2.38869 35.387 2.38869 20.6132 11.5009 11.5009C20.6132 2.38869 35.387 2.38869 44.4992 11.5009C53.6115 20.6132 53.6115 35.387 44.4992 44.4992" stroke="#8777E0" stroke-width="4" stroke-linecap="round" stroke-linejoin="round"/>
<path d="M18.1005 37.8995C12.6332 32.4322 12.6332 23.5678 18.1005 18.1005C23.5678 12.6332 32.4322 12.6332 37.8995 18.1005C43.3668 23.5678 43.3668 32.4322 37.8995 37.8995" stroke="#8777E0" stroke-width="4" stroke-linecap="round" stroke-linejoin="round"/>
<path d="M24.7001 31.2997C22.8776 29.4773 22.8776 26.5225 24.7001 24.7001C26.5225 22.8776 29.4773 22.8776 31.2997 24.7001C33.1222 26.5225 33.1222 29.4773 31.2997 31.2997" stroke="#EDEAE1" stroke-width="4" stroke-linecap="round" stroke-linejoin="round"/>
</svg>
